Coordinates
version=1
nRows=24
nColumns=24
inDegrees=yes

Units are S.I. units (second, meters, Newtons, ...)
Angles are in degrees.

endheader
time	pelvis_tilt	pelvis_list	pelvis_rotation	pelvis_tx	pelvis_ty	pelvis_tz	hip_flexion_r	hip_adduction_r	hip_rotation_r	knee_angle_r	ankle_angle_r	subtalar_angle_r	mtp_angle_r	hip_flexion_l	hip_adduction_l	hip_rotation_l	knee_angle_l	ankle_angle_l	subtalar_angle_l	mtp_angle_l	lumbar_extension	lumbar_bending	lumbar_rotation
      5.73500000	     14.29899326	     -2.03680331	     11.96931960	      2.49208184	      0.75773812	     -0.32500362	    -10.59826187	     10.04254840	     -3.18021077	    -10.74223560	     24.71499069	      9.97967244	      0.00000000	     13.68672333	     -0.25540476	      9.53391675	    -64.92679345	     18.41233403	     -5.94708676	      0.00000000	    -33.81715085	      7.30576772	      0.07251869
      5.74000000	     14.34719723	     -2.07275539	     11.42853676	      2.49967680	      0.75770278	     -0.32462143	    -11.55819156	     10.09117268	     -2.86525384	    -10.25332601	     24.97847447	     10.50985216	      0.00000000	     14.32431936	     -0.25462537	      8.99751681	    -63.56191021	     18.69437782	     -6.16133076	      0.00000000	    -33.98717563	      7.12803149	      0.74440778
      5.74500000	     14.39723092	     -2.13549425	     10.86318968	      2.50727180	      0.75756100	     -0.32422130	    -12.49814994	     10.14433271	     -2.58342382	     -9.80241170	     25.22553197	     11.05642548	      0.00000000	     14.92398181	     -0.31827395	      8.41768924	    -62.10072344	     18.96974598	     -6.36133700	      0.00000000	    -34.15687301	      6.97089382	      1.41931691
      5.75000000	     14.51961889	     -2.12983398	     10.29152793	      2.51488435	      0.75741649	     -0.32387027	    -13.53248908	     10.11367221	     -2.33368230	     -9.35884167	     25.60377554	     11.70418534	      0.00000000	     15.36453023	     -0.32704010	      7.84943431	    -60.50722417	     19.19330153	     -6.52666908	      0.00000000	    -34.41642273	      6.76448635	      2.04805735
      5.75500000	     14.59961143	     -2.21599329	      9.69419771	      2.52245845	      0.75710970	     -0.32351005	    -14.47705704	     10.14461183	     -2.07548480	     -8.96803426	     25.91756868	     12.33112054	      0.00000000	     15.83893546	     -0.44534188	      7.28139120	    -58.85044262	     19.42021596	     -6.61955961	      0.00000000	    -34.62744770	      6.63283958	      2.77534425
      5.76000000	     14.72739138	     -2.27416593	      9.09278176	      2.53006473	      0.75677682	     -0.32315269	    -15.47634941	     10.13265118	     -1.89469227	     -8.59121637	     26.25784539	     13.01194995	      0.00000000	     16.19282075	     -0.56861926	      6.67823430	    -57.07008002	     19.66128859	     -6.67678772	      0.00000000	    -34.88955946	      6.48089891	      3.43046328
      5.76500000	     14.80634674	     -2.43113729	      8.46839439	      2.53762328	      0.75628901	     -0.32278006	    -16.38175225	     10.19249472	     -1.67069425	     -8.26609439	     26.53514330	     13.63572296	      0.00000000	     16.58509755	     -0.80199301	      6.09285798	    -55.23358677	     19.88433547	     -6.63632858	      0.00000000	    -35.10102142	      6.40605055	      4.19306976
      5.77000000	     14.99243039	     -2.48172888	      7.87100097	      2.54523280	      0.75586021	     -0.32247931	    -17.43600486	     10.13891211	     -1.55820696	     -7.92090724	     26.94021537	     14.37872906	      0.00000000	     16.75757255	     -0.93718324	      5.52086922	    -53.24371881	     20.12191915	     -6.49578799	      0.00000000	    -35.42976029	      6.26208230	      4.82066906
      5.77500000	     15.07818340	     -2.67517429	      7.23055055	      2.55278085	      0.75523553	     -0.32213213	    -18.32337130	     10.19232934	     -1.35876822	     -7.65571361	     27.23589854	     15.00902808	      0.00000000	     17.03524829	     -1.22863972	      4.94771921	    -51.22078208	     20.33684171	     -6.24222240	      0.00000000	    -35.65340092	      6.22013494	      5.59693088
      5.78000000	     15.21201650	     -2.82323358	      6.60356867	      2.56036423	      0.75460811	     -0.32182067	    -19.27785004	     10.18868426	     -1.20251791	     -7.38606164	     27.58303485	     15.66304522	      0.00000000	     17.17772535	     -1.48037055	      4.38611083	    -49.07787660	     20.57322393	     -5.84350706	      0.00000000	    -35.92632491	      6.14605858	      6.30149426
      5.78500000	     15.36809878	     -2.98148464	      6.00047069	      2.56795712	      0.75393794	     -0.32153730	    -20.25109334	     10.18631582	     -1.10378858	     -7.13258565	     27.93579986	     16.33339525	      0.00000000	     17.23918250	     -1.73889235	      3.86956486	    -46.85292779	     20.78457783	     -5.31816283	      0.00000000	    -36.22244474	      6.08925695	      6.98751198
      5.79000000	     15.58741624	     -3.09914141	      5.46273624	      2.57560474	      0.75327017	     -0.32132619	    -21.31692832	     10.14855870	     -1.13895130	     -6.84350304	     28.30666940	     17.09634710	      0.00000000	     17.15661766	     -1.93474647	      3.43972509	    -44.52761448	     20.99112282	     -4.68750811	      0.00000000	    -36.57319574	      6.02539888	      7.56239453
      5.79500000	     15.68179366	     -3.32469521	      4.85065522	      2.58320240	      0.75243622	     -0.32105103	    -22.18606691	     10.17083675	     -1.02812771	     -6.67337990	     28.62438766	     17.71465718	      0.00000000	     17.18035025	     -2.25347643	      2.97226021	    -42.17701330	     21.13272789	     -3.91153194	      0.00000000	    -36.79989285	      6.01413794	      8.28894281
      5.80000000	     15.82506456	     -3.51238243	      4.28953557	      2.59086552	      0.75160386	     -0.32085316	    -23.13215829	     10.15604331	     -0.99342029	     -6.47326198	     28.95285011	     18.35126999	      0.00000000	     17.07638510	     -2.51370955	      2.57519098	    -39.75241163	     21.26407607	     -2.98838107	      0.00000000	    -37.06526107	      5.99632373	      8.93072087
      5.80500000	     15.96630771	     -3.70141235	      3.75394539	      2.59856863	      0.75072593	     -0.32068027	    -24.07241329	     10.13433344	     -1.00024119	     -6.29167272	     29.27690548	     19.00035921	      0.00000000	     16.91717868	     -2.75849833	      2.23903376	    -37.28746480	     21.34043347	     -1.98393431	      0.00000000	    -37.31900652	      5.98371940	      9.54476430
      5.81000000	     16.13750642	     -3.85502571	      3.28527287	      2.60635708	      0.74983852	     -0.32059158	    -25.06472702	     10.08229751	     -1.12308590	     -6.08354718	     29.57471053	     19.74270857	      0.00000000	     16.66188606	     -2.93058616	      2.01917186	    -34.78569417	     21.36815549	     -0.93249774	      0.00000000	    -37.58457044	      5.96887788	     10.06326818
      5.81500000	     16.19225321	     -4.06511040	      2.74704617	      2.61414297	      0.74881771	     -0.32044887	    -25.87886141	     10.04163051	     -1.10398326	     -5.99451111	     29.90264965	     20.33176233	      0.00000000	     16.49660446	     -3.16946335	      1.76408769	    -32.31207567	     21.31492846	      0.19764207	      0.00000000	    -37.72776621	      5.96177828	     10.70129922
      5.82000000	     16.29278489	     -4.23736233	      2.26981500	      2.62201561	      0.74781367	     -0.32036837	    -26.75631331	      9.96982822	     -1.17382013	     -5.88977537	     30.19203425	     20.98740904	      0.00000000	     16.22914021	     -3.34534773	      1.59918307	    -29.84895375	     21.22882539	      1.39108779	      0.00000000	    -37.89961432	      5.94604893	     11.24113653
      5.82500000	     16.34939924	     -4.39483587	      1.80707191	      2.62996194	      0.74675665	     -0.32031844	    -27.57269845	      9.87113410	     -1.25315007	     -5.82549397	     30.47015692	     21.63772906	      0.00000000	     15.97170196	     -3.48552692	      1.49559406	    -27.43922935	     21.06865523	      2.54995331	      0.00000000	    -38.00717623	      5.91799768	     11.77356586
      5.83000000	     16.39017361	     -4.53456471	      1.36635445	      2.63797440	      0.74567415	     -0.32029196	    -28.35398939	      9.74712886	     -1.35837613	     -5.80593605	     30.74192196	     22.30171050	      0.00000000	     15.70344104	     -3.59260430	      1.44657661	    -25.11386383	     20.86451462	      3.69212348	      0.00000000	    -38.08129030	      5.87779566	     12.27471044
      5.83500000	     16.39839378	     -4.65129728	      0.94065876	      2.64605764	      0.74456481	     -0.32028303	    -29.07636607	      9.59191018	     -1.46394758	     -5.84329369	     31.00158136	     22.95952160	      0.00000000	     15.45006663	     -3.66284375	      1.43891345	    -22.90191327	     20.62226772	      4.78006567	      0.00000000	    -38.10379867	      5.81630670	     12.75922790
      5.84000000	     16.39440167	     -4.74093831	      0.54658395	      2.65421048	      0.74344924	     -0.32031181	    -29.75926163	      9.40793123	     -1.60045167	     -5.93823470	     31.25685469	     23.64082932	      0.00000000	     15.20343073	     -3.69011884	      1.47887523	    -20.84076199	     20.36851524	      5.82000506	      0.00000000	    -38.09667986	      5.74207040	     13.21122449
      5.84500000	     16.34591721	     -4.79881060	      0.13996857	      2.66244743	      0.74232919	     -0.32033769	    -30.35996376	      9.17326332	     -1.70898125	     -6.10866701	     31.48939597	     24.28890830	      0.00000000	     14.99267253	     -3.67808422	      1.52174317	    -18.94559978	     20.11544178	      6.76021039	      0.00000000	    -38.02026239	      5.62751683	     13.65060650
      5.85000000	     16.28687933	     -4.82028446	     -0.24356411	      2.67076126	      0.74123088	     -0.32038303	    -30.91419277	      8.90022910	     -1.83619536	     -6.35178616	     31.70311095	     24.95098746	      0.00000000	     14.80071802	     -3.61993423	      1.56904948	    -17.25617981	     19.88700525	      7.64204076	      0.00000000	    -37.91380292	      5.48490925	     14.06210796
